PathFileType	4	(X/Y/Z)	Walk5.trc
DataRate	CameraRate	NumFrames	NumMarkers	Units	OrigDataRate	OrigDataStartFrame	OrigNumFrames
200.000000	200.000000	7	57	mm	200.000000	350	539
Frame#	Times		RBHD		C7		RASI		RACR1		RUA1		RFA1		LFA1		RTH3		RTH2		RWRU		RCAR		RElbow		RBack		LTH2		RTH1		LElbowM		RTB3		RMT1		RTH4		RMT5		RLFC		RTB1		RTB4		LTH4		RTB2		LACR1		LElbow		LWRU		LTH3		CLAV		LTB1		LPSI		T10		RPSI		RWRR		LTH1		LBHD		LLFC		LTB3		LTB4		RToe		LCAL		RFHD		LTB2		LMMAL		LASI		LWRR		LLMAL		RElbowM		LMT1		LToe		RLMAL		RMMAL		LMT5		LUA1		LCAR		RCAL
			X1	Y1	Z1	X2	Y2	Z2	X3	Y3	Z3	X4	Y4	Z4	X5	Y5	Z5	X6	Y6	Z6	X7	Y7	Z7	X8	Y8	Z8	X9	Y9	Z9	X10	Y10	Z10	X11	Y11	Z11	X12	Y12	Z12	X13	Y13	Z13	X14	Y14	Z14	X15	Y15	Z15	X16	Y16	Z16	X17	Y17	Z17	X18	Y18	Z18	X19	Y19	Z19	X20	Y20	Z20	X21	Y21	Z21	X22	Y22	Z22	X23	Y23	Z23	X24	Y24	Z24	X25	Y25	Z25	X26	Y26	Z26	X27	Y27	Z27	X28	Y28	Z28	X29	Y29	Z29	X30	Y30	Z30	X31	Y31	Z31	X32	Y32	Z32	X33	Y33	Z33	X34	Y34	Z34	X35	Y35	Z35	X36	Y36	Z36	X37	Y37	Z37	X38	Y38	Z38	X39	Y39	Z39	X40	Y40	Z40	X41	Y41	Z41	X42	Y42	Z42	X43	Y43	Z43	X44	Y44	Z44	X45	Y45	Z45	X46	Y46	Z46	X47	Y47	Z47	X48	Y48	Z48	X49	Y49	Z49	X50	Y50	Z50	X51	Y51	Z51	X52	Y52	Z52	X53	Y53	Z53	X54	Y54	Z54	X55	Y55	Z55	X56	Y56	Z56	X57	Y57	Z57

350	1.75	123.47	1558	379.69	101.29	1421.4	318.51	170.82	914.87	459.35	167.85	1378.1	464.33	141.76	1196.4	560.35	241.97	972.1	618.5	36.376	947.85	2.0891	22.542	542.18	463.01	115.39	619.19	453.05	314.72	867.89	600.61	382.3	858.31	605.19	123.86	1069.2	606.97	29.578	1329.8	417.52	298.68	676.89	153.96	74.111	722.33	492.12	-12.595	1094.9	129	-152.13	194.44	347.94	-145.95	39.501	296.85	48.872	630.27	481.02	-174.85	34.021	385.11	-15.353	443.21	442.62	-34.317	344.25	356.4	-90.181	269.56	354.01	236.26	644.77	120.43	-102.27	272.16	426.27	132.03	1402.3	141.21	3.1061	1095.8	51.551	-18.36	840.22	2.0383	273.45	564.69	140.09	235.05	1338.7	302.3	374.41	386.47	231.54	15.359	944.53	231.3	2.6924	1113.9	297.97	1.4264	945.53	334.93	364.96	917.78	567.89	195.54	733.81	112.88	130.82	1555.4	241.5	317.23	463.67	164.36	388.15	201.93	244.87	379.66	293.68	238.32	-95.991	25.005	316.89	295.09	28.012	263.59	308.2	1592.8	355.14	360.31	287.89	169.13	366.81	92.887	303.3	196.93	926.95	154.34	57.632	827.31	30.927	339.25	70.557	217.95	108.64	1026.9	516.77	498.82	42.391	295.87	540.05	54.044	279.81	-259.44	138.15	384.88	-229.36	141.91	297.96	476.08	35.93	214.23	58.759	1213	56.42	35.019	778.76	-17.682	-326.31	120.3	341.47
351	1.755	130.56	1558.4	378.82	108.6	1421.9	317.98	177.57	914.89	459.17	175.06	1378.7	464.28	148.13	1197	560.18	247.21	972.01	618.43	43.151	947.81	2.1026	31.607	541.56	463.05	123.77	619.25	453.13	318.77	867.04	600.82	386.53	856.95	605.65	129.33	1070	606.75	36.853	1330.7	417.47	306.86	678.4	154.08	81.673	722.02	491.81	-5.5459	1094.7	128.94	-146.78	196.19	348.58	-145.32	39.836	296.81	57.361	629.81	480.88	-173.83	34.382	385.04	-6.1122	442.65	443.14	-26.521	343.96	356.77	-83.787	270.46	354.5	243.91	645.98	120.83	-95.589	272.8	426.95	138.93	1402.5	140.77	10.267	1095.6	51.564	-12.33	840.11	1.9525	281.76	566.15	140.76	242.05	1339.2	301.97	381.01	386.09	231.36	21.808	944.65	231.71	9.4728	1114.3	298.49	8.3696	945.64	335.75	369.54	916.53	568.25	203.62	735.08	112.86	138.03	1555.7	240.57	325.72	464.13	164.32	391.25	201.17	244.57	383.89	293.11	238.07	-96.523	24.894	318.03	295.53	28.508	263.11	315.06	1593.4	354.24	365.01	287.58	168.79	367.69	92.706	302.99	204.22	928.13	154.38	64.061	827.19	30.892	339.83	70.596	217.26	113.96	1027.5	516.32	500.05	42.18	295.51	541.44	53.154	280.1	-255.36	141.76	385.66	-225.09	144.8	298.99	476.76	35.084	212.77	65.735	1212.9	56.394	41.207	778.65	-18.048	-322.38	125.95	342
352	1.76	137.59	1558.9	377.88	115.84	1422.3	317.5	184.55	915.16	459.06	182.85	1379.1	463.83	154.48	1197.7	559.83	251.89	971.84	618.24	49.77	948.01	2.0941	41.175	540.75	462.86	132.54	619.42	452.94	322.95	866.32	601.12	390.51	855.51	606	135.13	1070.8	606.26	43.925	1331.4	417.34	314.22	680.55	154.42	89.249	721.93	491.6	1.671	1094.8	129.01	-140.92	198.26	349.37	-144.98	39.873	297.08	65.716	629.54	480.64	-173.25	34.971	385.09	3.8145	442.13	443.8	-18.416	343.56	357.51	-76.758	271.2	355.07	251.62	647.37	120.92	-88.563	273.63	427.73	146.07	1402.6	140.29	17.444	1095.9	51.603	-5.6117	840.25	2.2624	290.33	568.03	141.41	249.31	1339.7	301.61	387.41	385.65	230.92	28.91	945.21	232.45	16.596	1115.1	298.77	15.26	945.73	336.38	373.81	915.11	568.42	210.71	736.06	112.26	144.96	1556	239.84	333.92	464.79	164.53	394.48	200.56	244.12	388.56	292.52	237.8	-96.728	24.786	318.58	296.05	28.924	262.8	322.15	1594	353.44	368.86	287.3	168.73	368.58	92.728	302.79	210.84	929.38	154.52	70.74	827.15	30.471	340.94	70.732	216.9	119.37	1028.5	515.96	501.37	41.577	295.32	542.69	51.89	280.32	-251.04	145.64	386.59	-220.35	147.66	300.16	478.06	34.442	211.57	72.959	1213	56.341	47.611	778.97	-18.37	-317.83	132.03	342.79
353	1.765	144.5	1559.5	376.94	123.01	1423	317.06	191.24	915.46	458.99	190.24	1379.9	463.42	160.98	1198.2	559.66	256.91	971.74	617.84	56.565	948.14	2.0081	50.648	539.87	462.88	141.29	619.35	452.99	326.82	865.46	601.08	394.13	854.23	606.29	140.95	1071.5	605.96	51.461	1332.3	417.21	321.07	683.12	155.05	97.238	721.66	491.22	9.0572	1094.8	129.06	-134.81	200.09	350.46	-144.46	39.939	297.46	74.545	628.98	480.56	-172.38	35.474	384.84	14.234	441.37	444.73	-9.5072	342.88	358.23	-69.48	271.97	355.9	259.49	648.92	121.05	-81.291	274.74	428.68	152.98	1402.9	140.11	24.473	1096	51.776	1.2372	840.42	2.1428	299.05	570.1	142.13	256.37	1340.2	301.23	393.6	385.15	230.43	35.926	945.52	232.83	23.334	1115.7	299.18	22.158	946.14	336.85	378.31	913.9	568.7	217.45	736.92	111.56	152.13	1556.2	239.04	341.08	464.98	164.9	397.41	199.91	243.64	393.19	292.01	237.35	-96.856	24.815	319.06	296.49	29.239	262.59	329.05	1594.8	352.72	372.65	287.04	168.36	369.65	92.804	302.67	218.1	930.71	154.56	77.3	827.22	30.24	341.9	70.766	216.79	124.88	1029.6	515.62	502.6	40.826	295.38	544.47	50.172	280.41	-246.33	149.72	387.3	-215.1	150.68	301.55	479.03	34.022	210.95	79.889	1213.1	56.29	54.202	779.08	-18.807	-312.65	138.19	343.48
354	1.77	151.6	1560.1	376.16	130.01	1423.9	316.89	198.13	915.92	458.92	197.74	1380.6	462.97	167.46	1199.2	559.48	261.38	971.55	617.64	63.519	948.43	1.9727	60.437	538.97	463.02	150.33	619.33	452.98	330.37	864.26	601.28	397.32	852.61	606.69	146.32	1072.6	605.47	58.757	1333.3	417.22	327.96	685.45	156.05	104.91	721.4	490.72	16.62	1095.4	129.25	-128.3	201.56	351.75	-143.76	40.132	297.67	83.325	628.9	481.03	-171.22	36.025	384.29	24.994	440.56	445.24	-0.052617	342.17	359.5	-61.192	272.74	356.86	267.51	650.54	121.15	-73.739	275.8	429.64	160.07	1403.5	139.79	31.55	1096.2	51.847	8.1339	840.9	2.0315	307.52	572.2	142.66	263.28	1340.7	301.09	399.63	384.48	229.92	42.719	946.19	232.95	30.103	1116.4	299.68	28.793	946.65	336.79	382.47	912.39	568.85	223.83	737.87	111.1	159.32	1556.7	238.18	347.6	465.24	165.31	400.1	199.48	243.43	397.89	291.53	236.83	-96.998	24.746	319.74	296.8	29.44	262.5	336.14	1595.5	351.8	376	286.82	168.3	370.57	92.786	302.96	224.88	932	154.52	84.56	827.66	29.897	343.1	70.77	216.96	130.31	1030.8	515.1	503.2	41.013	295.7	545.69	48.009	280.48	-241.08	154.13	388.12	-209.05	153.92	302.62	479.81	33.69	210.68	87.219	1213.4	56.284	61.026	779.53	-19.079	-306.57	144.59	343.93
355	1.775	159.04	1561	375.65	137.15	1424.7	316.87	204.7	916.34	458.76	205.35	1381.4	462.7	174.03	1200	559.26	265.97	971.44	617.59	70.601	948.82	2.0343	70.937	538.06	463.24	159.49	619.69	452.92	333.59	863.37	601.52	400.52	851.02	607.01	151.84	1073.5	605.06	66.014	1334.7	417.38	334.59	687.62	157.24	112.55	721.07	490.39	24.157	1095.9	129.6	-121.03	203.08	353.36	-142.88	40.147	297.86	92.264	628.06	480.53	-169.77	36.55	383.88	36.026	439.61	446.08	9.8865	341.67	360.57	-52.262	273.32	357.82	274.87	651.87	121.38	-65.948	277	430.81	167.04	1403.8	139.53	38.955	1096.9	52.011	15.031	841.39	2.1017	315.65	574.04	142.79	270.65	1341.4	300.67	405.57	383.96	229.34	49.401	947.06	233.08	37.188	1117.1	300.07	35.545	947.16	336.9	386.34	910.8	569.04	230.47	738.68	110.76	166.32	1557.3	237.6	352.98	465.28	165.87	402.78	198.73	243.29	402.19	291.09	236.36	-97.102	24.622	320.53	296.97	29.541	262.49	343.37	1596.4	350.76	379.02	286.38	168.16	371.34	92.858	303.45	231.93	933.46	154.67	91.371	827.9	29.618	343.9	70.833	217.03	135.96	1032.1	514.61	503.49	40.621	296.45	546.84	46.462	281.94	-234.89	158.44	389.36	-202.2	157.18	303.84	480.3	33.446	210.77	94.545	1213.8	56.181	67.859	779.95	-19.372	-300.05	151.41	344.25
356	1.78	166.19	1561.9	374.99	144.26	1425.5	316.63	211.39	916.98	458.39	212.66	1382.2	462.51	180.55	1201	559.01	270.42	971.3	617.61	77.897	949.47	2.0082	81.623	536.93	463.6	168.95	619.86	453.03	336.47	862.72	601.57	403.56	849.27	607.2	157.26	1074.9	604.46	73.179	1335.8	417.21	340.79	689.11	158.53	120.59	720.77	489.96	31.671	1096	129.9	-113	204.77	354.61	-141.85	40.257	298.05	101.53	627.24	480.17	-167.7	37.596	383.81	47.499	438.84	446.9	20.466	340.93	361.74	-43.028	273.96	358.83	281.85	653.04	121.74	-56.886	278.34	431.88	173.85	1404.5	139.42	46.325	1097	52.249	22.295	841.72	2.2134	323.26	575.27	142.64	277.83	1342.1	300.35	410.9	383.37	228.74	55.587	947.98	232.85	43.964	1117.8	300.55	42.387	947.52	336.91	390.3	909.41	569.33	237.23	739.51	110.58	173.56	1557.6	236.89	358.04	465.38	166.47	405.04	198.15	243.28	406.18	290.53	236.13	-97.006	24.507	321.13	297.09	29.617	262.55	350.59	1597.5	349.9	381.7	285.8	168.34	371.69	92.934	303.95	238.79	934.84	154.71	98.821	828.45	29.454	344.43	71.02	217.37	141.61	1033.6	514.01	504.02	39.822	297.38	547.76	45.107	283.2	-227.68	163	390.38	-194.96	160.48	305.01	480.58	33.334	210.98	101.58	1214.3	56.104	75.095	780.5	-19.579	-292.66	158.15	344.84
